<mxfile host="app.diagrams.net" agent="Mozilla/5.0 (X11; Linux x86_64; rv:131.0) Gecko/20100101 Firefox/131.0" version="24.8.2">
  <diagram name="Page-1" id="b5b7bab2-c9e2-2cf4-8b2a-24fd1a2a6d21">
    <mxGraphModel dx="2390" dy="1278" grid="1" gridSize="10" guides="1" tooltips="1" connect="1" arrows="1" fold="1" page="1" pageScale="1" pageWidth="827" pageHeight="1169" background="none" math="0" shadow="0">
      <root>
        <mxCell id="0" />
        <mxCell id="1" parent="0" />
        <mxCell id="VS2FXl776Oh9oYvRG-sV-3" value="firewall" style="verticalAlign=top;align=left;spacingTop=8;spacingLeft=2;spacingRight=12;shape=cube;size=10;direction=south;fontStyle=4;html=1;whiteSpace=wrap;" parent="1" vertex="1">
          <mxGeometry x="600" y="350" width="290" height="50" as="geometry" />
        </mxCell>
        <mxCell id="VS2FXl776Oh9oYvRG-sV-19" value="&lt;div&gt;reverse proxy server&lt;br&gt;&lt;/div&gt;&lt;div align=&quot;center&quot;&gt;Deploys&lt;/div&gt;&lt;div align=&quot;left&quot;&gt;caddy proxy manager&lt;br&gt;&lt;/div&gt;" style="verticalAlign=top;align=left;spacingTop=8;spacingLeft=2;spacingRight=12;shape=cube;size=10;direction=south;fontStyle=4;html=1;whiteSpace=wrap;" parent="1" vertex="1">
          <mxGeometry x="645" y="450" width="180" height="120" as="geometry" />
        </mxCell>
        <mxCell id="VS2FXl776Oh9oYvRG-sV-20" value="&lt;div&gt;docker server&lt;br&gt;&lt;/div&gt;&lt;div&gt;&lt;br&gt;&lt;/div&gt;" style="verticalAlign=top;align=left;spacingTop=8;spacingLeft=2;spacingRight=12;shape=cube;size=10;direction=south;fontStyle=4;html=1;whiteSpace=wrap;" parent="1" vertex="1">
          <mxGeometry x="460" y="610" width="520" height="300" as="geometry" />
        </mxCell>
        <mxCell id="VS2FXl776Oh9oYvRG-sV-21" value="&lt;div&gt;(container 1) &lt;br&gt;&lt;/div&gt;&lt;div align=&quot;center&quot;&gt;Deploys&lt;br&gt;&lt;/div&gt;&lt;div&gt;api server and http server&lt;br&gt;&lt;/div&gt;&lt;div&gt;single binary go application&lt;br&gt;&lt;/div&gt;" style="verticalAlign=top;align=left;spacingTop=8;spacingLeft=2;spacingRight=12;shape=cube;size=10;direction=south;fontStyle=4;html=1;whiteSpace=wrap;" parent="1" vertex="1">
          <mxGeometry x="480" y="710" width="180" height="120" as="geometry" />
        </mxCell>
        <mxCell id="VS2FXl776Oh9oYvRG-sV-22" value="&lt;div&gt;(container 2)&lt;/div&gt;&lt;div align=&quot;center&quot;&gt;Deploys&lt;/div&gt;&lt;div align=&quot;left&quot;&gt;database&lt;br&gt;&lt;/div&gt;" style="verticalAlign=top;align=left;spacingTop=8;spacingLeft=2;spacingRight=12;shape=cube;size=10;direction=south;fontStyle=4;html=1;whiteSpace=wrap;" parent="1" vertex="1">
          <mxGeometry x="780" y="710" width="180" height="120" as="geometry" />
        </mxCell>
        <mxCell id="VS2FXl776Oh9oYvRG-sV-31" value="client devices" style="verticalAlign=top;align=left;spacingTop=8;spacingLeft=2;spacingRight=12;shape=cube;size=10;direction=south;fontStyle=4;html=1;whiteSpace=wrap;" parent="1" vertex="1">
          <mxGeometry x="690" y="200" width="123" height="80" as="geometry" />
        </mxCell>
        <mxCell id="z9gF-zGgzHWbp9YOgntA-13" value="&amp;lt;&amp;lt; https traffic &amp;gt;&amp;gt;" style="endArrow=none;html=1;endSize=12;startArrow=none;startSize=14;startFill=0;edgeStyle=orthogonalEdgeStyle;align=center;verticalAlign=bottom;endFill=0;rounded=0;entryX=0;entryY=0;entryDx=80;entryDy=66.5;entryPerimeter=0;strokeWidth=3;" edge="1" parent="1" target="VS2FXl776Oh9oYvRG-sV-31">
          <mxGeometry x="0.0165" y="3" relative="1" as="geometry">
            <mxPoint x="747" y="340" as="sourcePoint" />
            <mxPoint x="760" y="300" as="targetPoint" />
            <mxPoint as="offset" />
          </mxGeometry>
        </mxCell>
        <mxCell id="z9gF-zGgzHWbp9YOgntA-15" value="&amp;lt;&amp;lt; https traffic &amp;gt;&amp;gt;" style="endArrow=none;html=1;endSize=12;startArrow=none;startSize=14;startFill=0;edgeStyle=orthogonalEdgeStyle;align=center;verticalAlign=bottom;endFill=0;rounded=0;entryX=0;entryY=0;entryDx=50;entryDy=150;entryPerimeter=0;exitX=0;exitY=0;exitDx=0;exitDy=85;exitPerimeter=0;strokeWidth=3;" edge="1" parent="1" source="VS2FXl776Oh9oYvRG-sV-19" target="VS2FXl776Oh9oYvRG-sV-3">
          <mxGeometry y="3" relative="1" as="geometry">
            <mxPoint x="630" y="580" as="sourcePoint" />
            <mxPoint x="790" y="580" as="targetPoint" />
          </mxGeometry>
        </mxCell>
        <mxCell id="z9gF-zGgzHWbp9YOgntA-16" value="&amp;lt;&amp;lt; http traffic &amp;gt;&amp;gt;" style="endArrow=none;html=1;endSize=12;startArrow=none;startSize=14;startFill=0;edgeStyle=orthogonalEdgeStyle;align=center;verticalAlign=bottom;endFill=0;rounded=0;entryX=0;entryY=0;entryDx=120;entryDy=95;entryPerimeter=0;exitX=0;exitY=0;exitDx=0;exitDy=250;exitPerimeter=0;strokeWidth=3;" edge="1" parent="1" source="VS2FXl776Oh9oYvRG-sV-20" target="VS2FXl776Oh9oYvRG-sV-19">
          <mxGeometry y="3" relative="1" as="geometry">
            <mxPoint x="630" y="670" as="sourcePoint" />
            <mxPoint x="790" y="670" as="targetPoint" />
          </mxGeometry>
        </mxCell>
        <mxCell id="z9gF-zGgzHWbp9YOgntA-18" value="&amp;lt;&amp;lt; docker network &amp;gt;&amp;gt;" style="endArrow=none;html=1;endSize=12;startArrow=none;startSize=14;startFill=0;edgeStyle=orthogonalEdgeStyle;align=center;verticalAlign=bottom;endFill=0;rounded=0;exitX=0.539;exitY=0.025;exitDx=0;exitDy=0;exitPerimeter=0;entryX=0;entryY=0;entryDx=65;entryDy=180;entryPerimeter=0;strokeWidth=3;" edge="1" parent="1" source="VS2FXl776Oh9oYvRG-sV-21" target="VS2FXl776Oh9oYvRG-sV-22">
          <mxGeometry x="0.0338" y="3" relative="1" as="geometry">
            <mxPoint x="640" y="780" as="sourcePoint" />
            <mxPoint x="780" y="780" as="targetPoint" />
            <mxPoint x="1" as="offset" />
          </mxGeometry>
        </mxCell>
      </root>
    </mxGraphModel>
  </diagram>
</mxfile>
